<svg width="32" height="32" viewBox="0 0 32 32" fill="none" xmlns="http://www.w3.org/2000/svg">
<path opacity="0.2" d="M26 24H6.00003C5.825 23.9989 5.65332 23.952 5.50214 23.8638C5.35095 23.7756 5.22557 23.6492 5.13851 23.4974C5.05146 23.3456 5.00578 23.1735 5.00604 22.9985C5.00631 22.8235 5.05251 22.6516 5.14003 22.5C5.96378 21.075 7.00003 17.4763 7.00003 13C7.00003 10.6131 7.94824 8.32387 9.63607 6.63604C11.3239 4.94821 13.6131 4 16 4C18.387 4 20.6762 4.94821 22.364 6.63604C24.0518 8.32387 25 10.6131 25 13C25 17.4775 26.0375 21.075 26.8625 22.5C26.9501 22.6518 26.9963 22.8239 26.9965 22.9991C26.9967 23.1744 26.9508 23.3466 26.8634 23.4985C26.7761 23.6504 26.6503 23.7767 26.4988 23.8647C26.3473 23.9527 26.1753 23.9994 26 24Z" fill="white"/>
<path d="M27.725 21.9925C27.0313 20.7975 26 17.4163 26 13C26 10.3478 24.9464 7.8043 23.0711 5.92893C21.1957 4.05357 18.6522 3 16 3C13.3479 3 10.8043 4.05357 8.92895 5.92893C7.05358 7.8043 6.00002 10.3478 6.00002 13C6.00002 17.4175 4.96752 20.7975 4.27377 21.9925C4.0966 22.2963 4.00268 22.6415 4.00148 22.9931C4.00027 23.3448 4.09182 23.6906 4.26689 23.9956C4.44196 24.3006 4.69437 24.5541 4.99865 24.7304C5.30293 24.9068 5.64833 24.9997 6.00002 25H11.1013C11.332 26.1289 11.9455 27.1436 12.8382 27.8722C13.7308 28.6009 14.8477 28.9989 16 28.9989C17.1523 28.9989 18.2692 28.6009 19.1618 27.8722C20.0545 27.1436 20.6681 26.1289 20.8988 25H26C26.3516 24.9995 26.6968 24.9064 27.0009 24.73C27.3051 24.5535 27.5573 24.3 27.7322 23.9951C27.9071 23.6901 27.9986 23.3444 27.9973 22.9928C27.996 22.6412 27.9021 22.2962 27.725 21.9925ZM16 27C15.3798 26.9998 14.7749 26.8074 14.2685 26.4492C13.7622 26.0911 13.3793 25.5848 13.1725 25H18.8275C18.6208 25.5848 18.2379 26.0911 17.7315 26.4492C17.2252 26.8074 16.6202 26.9998 16 27ZM6.00002 23C6.96252 21.345 8.00002 17.51 8.00002 13C8.00002 10.8783 8.84287 8.84344 10.3432 7.34315C11.8435 5.84285 13.8783 5 16 5C18.1217 5 20.1566 5.84285 21.6569 7.34315C23.1572 8.84344 24 10.8783 24 13C24 17.5062 25.035 21.3412 26 23H6.00002Z" fill="white"/>
</svg>
