<svg width="28" height="28" viewBox="0 0 28 28" fill="none" xmlns="http://www.w3.org/2000/svg">
<path d="M21.0001 9.3331C21.0001 7.47658 20.2626 5.69611 18.9498 4.38335C17.6371 3.0706 15.8566 2.3331 14.0001 2.3331C12.1435 2.3331 10.3631 3.0706 9.05031 4.38335C7.73756 5.69611 7.00006 7.47658 7.00006 9.3331C7.00006 17.4998 3.50006 19.8331 3.50006 19.8331H24.5001C24.5001 19.8331 21.0001 17.4998 21.0001 9.3331Z" fill="#165DFF" fill-opacity="0.1" stroke="black" stroke-width="1.4" stroke-linecap="round" stroke-linejoin="round"/>
<path d="M16.0181 24.5C15.8129 24.8536 15.5185 25.1471 15.1643 25.3511C14.8101 25.5551 14.4085 25.6625 13.9997 25.6625C13.5909 25.6625 13.1893 25.5551 12.8351 25.3511C12.4809 25.1471 12.1865 24.8536 11.9814 24.5" stroke="black" stroke-width="1.4" stroke-linecap="round" stroke-linejoin="round"/>
</svg>
