<svg width="8" height="8" viewBox="0 0 8 8" fill="none" xmlns="http://www.w3.org/2000/svg">
<path d="M3.46423 7.32792C3.76932 7.32792 3.99996 7.21076 4.15617 6.97645L7.53535 1.88388C7.59149 1.80089 7.63298 1.71913 7.65983 1.63859C7.68668 1.5556 7.7001 1.47628 7.7001 1.40061C7.7001 1.19071 7.62688 1.01742 7.48044 0.88074C7.33644 0.741619 7.15826 0.672058 6.94592 0.672058C6.79948 0.672058 6.675 0.701347 6.57249 0.759924C6.47242 0.816061 6.37723 0.91369 6.28692 1.05281L3.44958 5.50836L2.02908 3.80595C1.87531 3.62778 1.6825 3.53869 1.45063 3.53869C1.2334 3.53869 1.05401 3.60825 0.912447 3.74737C0.770885 3.88649 0.700104 4.06101 0.700104 4.27091C0.700104 4.3661 0.714748 4.4564 0.744037 4.54183C0.775766 4.62481 0.833123 4.71146 0.916108 4.80177L2.80157 7.02405C2.97486 7.22663 3.19575 7.32792 3.46423 7.32792Z" fill="white"/>
</svg>
